<svg width="201" height="36" viewBox="0 0 201 36" fill="none" xmlns="http://www.w3.org/2000/svg">
<rect x="2" y="2" width="31" height="31" rx="15.5" fill="white" stroke="#DA2638" stroke-width="2"/>
<path d="M17.2044 18.8055C17.0243 18.8055 16.8942 18.8055 16.7541 18.8055C14.903 18.8055 13.0519 18.8055 11.2007 18.8055C11.1107 18.8055 11.0306 18.8055 10.9406 18.8055C10.3702 18.7955 10 18.4753 10 18.0051C10 17.5248 10.3602 17.2046 10.9306 17.1946C12.7517 17.1846 14.5828 17.1946 16.4039 17.1946C16.654 17.1946 16.8942 17.1946 17.1944 17.1946C17.1944 17.0145 17.1944 16.8644 17.1944 16.7243C17.1944 14.8532 17.1944 12.9721 17.1944 11.101C17.1944 10.9309 17.2044 10.7507 17.2444 10.5806C17.3245 10.2404 17.6446 10.0103 17.9849 10.0003C18.3451 9.9903 18.6653 10.2304 18.7553 10.5907C18.7954 10.7507 18.8054 10.9108 18.8054 11.0709C18.8054 12.942 18.8054 14.8232 18.8054 16.6943C18.8054 16.8444 18.8054 16.9945 18.8054 17.1946C18.9755 17.1946 19.1256 17.1946 19.2656 17.1946C21.1368 17.1946 23.0179 17.1946 24.8891 17.1946C25.0391 17.1946 25.1892 17.1946 25.3393 17.2246C25.7396 17.3046 26.0097 17.6348 25.9997 18.0151C25.9897 18.3853 25.7296 18.7055 25.3493 18.7755C25.1992 18.8055 25.0492 18.8055 24.8991 18.8055C23.0379 18.8055 21.1768 18.8055 19.3157 18.8055C19.1656 18.8055 19.0155 18.8055 18.8054 18.8055C18.8054 18.9756 18.8054 19.1157 18.8054 19.2558C18.8054 21.1069 18.8054 22.958 18.8054 24.8091C18.8054 24.9092 18.8054 25.0092 18.8054 25.1093C18.7853 25.6496 18.4551 26.0098 17.9949 25.9998C17.5346 25.9998 17.2044 25.6396 17.1944 25.0993C17.1844 23.1881 17.1944 21.277 17.1944 19.3659C17.2044 19.1958 17.2044 19.0357 17.2044 18.8055Z" fill="#DA2638"/>
<path d="M52.2236 25L51.2124 21.8086H46.5088L45.479 25H42.668L47.3159 11.6128H50.6094L55.2573 25H52.2236ZM48.791 14.396L47.1118 19.647H50.6187L48.958 14.396H48.791ZM60.3784 25.1577C59.092 25.1577 58.0745 24.6846 57.3262 23.7383C56.584 22.792 56.2129 21.5024 56.2129 19.8696C56.2129 18.243 56.584 16.9596 57.3262 16.0195C58.0745 15.0732 59.092 14.6001 60.3784 14.6001C61.0711 14.6001 61.6865 14.7609 62.2246 15.0825C62.7627 15.3979 63.1647 15.8371 63.4307 16.3999H63.5884V10.8613H66.2881V25H63.6719V23.395H63.5049C63.2327 23.9455 62.8215 24.3784 62.271 24.6938C61.7205 25.0031 61.0897 25.1577 60.3784 25.1577ZM62.9946 17.6802C62.5802 17.1359 62.0143 16.8638 61.2969 16.8638C60.5794 16.8638 60.0135 17.1328 59.5991 17.6709C59.1909 18.2028 58.9868 18.9388 58.9868 19.8789C58.9868 20.8252 59.1909 21.5674 59.5991 22.1055C60.0073 22.6374 60.5732 22.9033 61.2969 22.9033C62.0205 22.9033 62.5864 22.6374 62.9946 22.1055C63.409 21.5674 63.6162 20.8283 63.6162 19.8882C63.6162 18.9543 63.409 18.2183 62.9946 17.6802ZM72.7544 25.1577C71.4679 25.1577 70.4505 24.6846 69.7021 23.7383C68.96 22.792 68.5889 21.5024 68.5889 19.8696C68.5889 18.243 68.96 16.9596 69.7021 16.0195C70.4505 15.0732 71.4679 14.6001 72.7544 14.6001C73.4471 14.6001 74.0625 14.7609 74.6006 15.0825C75.1387 15.3979 75.5407 15.8371 75.8066 16.3999H75.9644V10.8613H78.6641V25H76.0479V23.395H75.8809C75.6087 23.9455 75.1974 24.3784 74.647 24.6938C74.0965 25.0031 73.4657 25.1577 72.7544 25.1577ZM75.3706 17.6802C74.9562 17.1359 74.3903 16.8638 73.6729 16.8638C72.9554 16.8638 72.3895 17.1328 71.9751 17.6709C71.5669 18.2028 71.3628 18.9388 71.3628 19.8789C71.3628 20.8252 71.5669 21.5674 71.9751 22.1055C72.3833 22.6374 72.9492 22.9033 73.6729 22.9033C74.3965 22.9033 74.9624 22.6374 75.3706 22.1055C75.785 21.5674 75.9922 20.8283 75.9922 19.8882C75.9922 18.9543 75.785 18.2183 75.3706 17.6802ZM86.1323 17.7729C86.1323 16.8019 86.522 16.0226 87.3013 15.4351C88.0868 14.8413 89.1165 14.5444 90.3906 14.5444C91.6895 14.5444 92.7069 14.8073 93.4429 15.333C94.1851 15.8587 94.5933 16.6102 94.6675 17.5874H92.1719C92.1038 17.2534 91.9152 16.9937 91.606 16.8081C91.3029 16.6164 90.904 16.5205 90.4092 16.5205C89.9206 16.5205 89.5186 16.6226 89.2031 16.8267C88.8877 17.0246 88.73 17.2843 88.73 17.606C88.73 17.8534 88.8413 18.0605 89.064 18.2275C89.2866 18.3883 89.6361 18.5213 90.1123 18.6265L92.0327 19.0439C93.0285 19.2604 93.7552 19.5913 94.2129 20.0366C94.6768 20.4819 94.9087 21.085 94.9087 21.8457C94.9087 22.86 94.4943 23.6764 93.6655 24.2949C92.8368 24.9134 91.7482 25.2227 90.3999 25.2227C89.0516 25.2227 87.9847 24.9567 87.1992 24.4248C86.4137 23.8929 85.9746 23.1353 85.8818 22.1519H88.5166C88.7331 22.8817 89.3794 23.2466 90.4556 23.2466C90.9813 23.2466 91.408 23.1476 91.7358 22.9497C92.0636 22.7456 92.2275 22.4797 92.2275 22.1519C92.2275 21.8983 92.1255 21.6942 91.9214 21.5396C91.7173 21.3787 91.3895 21.2489 90.938 21.1499L89.0825 20.7324C88.0868 20.516 87.3446 20.1665 86.856 19.6841C86.3735 19.1955 86.1323 18.5584 86.1323 17.7729ZM97.2188 25V10.8613H99.8721V16.4463H100.039C100.28 15.8587 100.667 15.401 101.199 15.0732C101.737 14.7393 102.38 14.5723 103.128 14.5723C104.236 14.5723 105.095 14.9062 105.708 15.5742C106.326 16.2422 106.635 17.1885 106.635 18.4131V25H103.936V19.0532C103.936 18.3481 103.775 17.8132 103.453 17.4482C103.132 17.0833 102.665 16.9009 102.052 16.9009C101.384 16.9009 100.862 17.105 100.484 17.5132C100.107 17.9152 99.9185 18.4533 99.9185 19.1274V25H97.2188ZM112.953 23.126C113.578 23.126 114.1 22.9497 114.521 22.5972C114.942 22.2446 115.152 21.8086 115.152 21.2891V20.5376L113.083 20.6675C111.933 20.7479 111.357 21.1592 111.357 21.9014C111.357 22.2786 111.503 22.5786 111.793 22.8013C112.09 23.0177 112.477 23.126 112.953 23.126ZM112.062 25.1577C111.073 25.1577 110.266 24.8763 109.641 24.3135C109.023 23.7507 108.713 23.0054 108.713 22.0776C108.713 21.1561 109.054 20.4325 109.734 19.9067C110.42 19.3748 111.401 19.0718 112.675 18.9976L115.152 18.8491V18.0142C115.152 17.5874 115.003 17.2596 114.707 17.0308C114.41 16.7957 113.983 16.6782 113.426 16.6782C112.424 16.6782 111.809 16.9937 111.58 17.6245H109.094C109.18 16.6782 109.626 15.9299 110.43 15.3794C111.24 14.8228 112.288 14.5444 113.575 14.5444C114.923 14.5444 115.965 14.8475 116.701 15.4536C117.443 16.0597 117.814 16.9132 117.814 18.0142V25H115.198V23.6641H115.031C114.765 24.1341 114.369 24.5021 113.844 24.7681C113.318 25.0278 112.724 25.1577 112.062 25.1577ZM120.468 25V14.7671H123.084V16.3999H123.251C123.387 15.8804 123.696 15.4505 124.179 15.1104C124.667 14.7702 125.233 14.6001 125.876 14.6001C126.34 14.6001 126.693 14.6434 126.934 14.73V17.1885C126.65 17.0771 126.223 17.0215 125.654 17.0215C124.905 17.0215 124.302 17.2287 123.845 17.6431C123.393 18.0575 123.167 18.6203 123.167 19.3315V25H120.468ZM132.927 16.6133C132.303 16.6133 131.786 16.8143 131.378 17.2163C130.976 17.6183 130.75 18.1502 130.701 18.812H135.061C135.03 18.1317 134.823 17.5967 134.439 17.207C134.062 16.8112 133.558 16.6133 132.927 16.6133ZM135.117 22.0869H137.631C137.427 23.0579 136.907 23.8249 136.072 24.3877C135.243 24.9443 134.204 25.2227 132.955 25.2227C131.396 25.2227 130.181 24.7588 129.309 23.8311C128.437 22.8971 128.001 21.5983 128.001 19.9346C128.001 18.2708 128.44 16.9565 129.318 15.9917C130.197 15.0269 131.396 14.5444 132.918 14.5444C134.427 14.5444 135.602 14.999 136.443 15.9082C137.291 16.8174 137.714 18.0853 137.714 19.7119V20.5376H130.691V20.6768C130.71 21.4375 130.926 22.0405 131.341 22.4858C131.761 22.925 132.324 23.1445 133.029 23.1445C133.561 23.1445 134.007 23.0549 134.365 22.8755C134.724 22.6899 134.974 22.4271 135.117 22.0869ZM140.024 25V10.8613H142.678V16.4463H142.845C143.086 15.8587 143.472 15.401 144.004 15.0732C144.542 14.7393 145.186 14.5723 145.934 14.5723C147.041 14.5723 147.901 14.9062 148.513 15.5742C149.132 16.2422 149.441 17.1885 149.441 18.4131V25H146.741V19.0532C146.741 18.3481 146.58 17.8132 146.259 17.4482C145.937 17.0833 145.47 16.9009 144.858 16.9009C144.19 16.9009 143.667 17.105 143.29 17.5132C142.913 17.9152 142.724 18.4533 142.724 19.1274V25H140.024ZM160.295 23.8032C159.405 24.7495 158.174 25.2227 156.603 25.2227C155.032 25.2227 153.798 24.7495 152.901 23.8032C152.011 22.8569 151.565 21.5488 151.565 19.8789C151.565 18.2214 152.014 16.9194 152.911 15.9731C153.814 15.0207 155.044 14.5444 156.603 14.5444C158.162 14.5444 159.389 15.0207 160.286 15.9731C161.189 16.9194 161.641 18.2214 161.641 19.8789C161.641 21.5488 161.192 22.8569 160.295 23.8032ZM156.603 23.0146C157.32 23.0146 157.877 22.7425 158.273 22.1982C158.669 21.6478 158.867 20.8747 158.867 19.8789C158.867 18.8955 158.666 18.1286 158.264 17.5781C157.868 17.0277 157.314 16.7524 156.603 16.7524C155.886 16.7524 155.329 17.0277 154.933 17.5781C154.537 18.1286 154.339 18.8955 154.339 19.8789C154.339 20.8747 154.534 21.6478 154.924 22.1982C155.32 22.7425 155.879 23.0146 156.603 23.0146ZM163.941 25V10.8613H166.641V25H163.941ZM173.117 25.1577C171.83 25.1577 170.813 24.6846 170.064 23.7383C169.322 22.792 168.951 21.5024 168.951 19.8696C168.951 18.243 169.322 16.9596 170.064 16.0195C170.813 15.0732 171.83 14.6001 173.117 14.6001C173.809 14.6001 174.425 14.7609 174.963 15.0825C175.501 15.3979 175.903 15.8371 176.169 16.3999H176.327V10.8613H179.026V25H176.41V23.395H176.243C175.971 23.9455 175.56 24.3784 175.009 24.6938C174.459 25.0031 173.828 25.1577 173.117 25.1577ZM175.733 17.6802C175.319 17.1359 174.753 16.8638 174.035 16.8638C173.318 16.8638 172.752 17.1328 172.337 17.6709C171.929 18.2028 171.725 18.9388 171.725 19.8789C171.725 20.8252 171.929 21.5674 172.337 22.1055C172.746 22.6374 173.312 22.9033 174.035 22.9033C174.759 22.9033 175.325 22.6374 175.733 22.1055C176.147 21.5674 176.354 20.8283 176.354 19.8882C176.354 18.9543 176.147 18.2183 175.733 17.6802ZM186.253 16.6133C185.629 16.6133 185.112 16.8143 184.704 17.2163C184.302 17.6183 184.076 18.1502 184.027 18.812H188.387C188.356 18.1317 188.149 17.5967 187.766 17.207C187.388 16.8112 186.884 16.6133 186.253 16.6133ZM188.443 22.0869H190.957C190.753 23.0579 190.233 23.8249 189.398 24.3877C188.57 24.9443 187.531 25.2227 186.281 25.2227C184.723 25.2227 183.507 24.7588 182.635 23.8311C181.763 22.8971 181.327 21.5983 181.327 19.9346C181.327 18.2708 181.766 16.9565 182.645 15.9917C183.523 15.0269 184.723 14.5444 186.244 14.5444C187.753 14.5444 188.928 14.999 189.77 15.9082C190.617 16.8174 191.041 18.0853 191.041 19.7119V20.5376H184.018V20.6768C184.036 21.4375 184.253 22.0405 184.667 22.4858C185.088 22.925 185.65 23.1445 186.355 23.1445C186.887 23.1445 187.333 23.0549 187.691 22.8755C188.05 22.6899 188.301 22.4271 188.443 22.0869ZM193.258 25V14.7671H195.874V16.3999H196.041C196.177 15.8804 196.486 15.4505 196.969 15.1104C197.457 14.7702 198.023 14.6001 198.667 14.6001C199.13 14.6001 199.483 14.6434 199.724 14.73V17.1885C199.44 17.0771 199.013 17.0215 198.444 17.0215C197.695 17.0215 197.092 17.2287 196.635 17.6431C196.183 18.0575 195.958 18.6203 195.958 19.3315V25H193.258Z" fill="#DA2638"/>
</svg>
