<svg width="22" height="18" viewBox="0 0 22 18" fill="none" xmlns="http://www.w3.org/2000/svg">
<path fill-rule="evenodd" clip-rule="evenodd" d="M0 1.5C0 1.10218 0.165561 0.720645 0.460261 0.43934C0.754961 0.158036 1.15466 0 1.57143 0H20.4286C20.8453 0 21.245 0.158036 21.5397 0.43934C21.8344 0.720645 22 1.10218 22 1.5C22 1.89782 21.8344 2.27936 21.5397 2.56066C21.245 2.84196 20.8453 3 20.4286 3H1.57143C1.15466 3 0.754961 2.84196 0.460261 2.56066C0.165561 2.27936 0 1.89782 0 1.5ZM0 9C0 8.60218 0.165561 8.22064 0.460261 7.93934C0.754961 7.65804 1.15466 7.5 1.57143 7.5H20.4286C20.8453 7.5 21.245 7.65804 21.5397 7.93934C21.8344 8.22064 22 8.60218 22 9C22 9.39782 21.8344 9.77936 21.5397 10.0607C21.245 10.342 20.8453 10.5 20.4286 10.5H1.57143C1.15466 10.5 0.754961 10.342 0.460261 10.0607C0.165561 9.77936 0 9.39782 0 9ZM0 16.5C0 16.1022 0.165561 15.7206 0.460261 15.4393C0.754961 15.158 1.15466 15 1.57143 15H20.4286C20.8453 15 21.245 15.158 21.5397 15.4393C21.8344 15.7206 22 16.1022 22 16.5C22 16.8978 21.8344 17.2794 21.5397 17.5607C21.245 17.842 20.8453 18 20.4286 18H1.57143C1.15466 18 0.754961 17.842 0.460261 17.5607C0.165561 17.2794 0 16.8978 0 16.5Z" fill="#4A5568"/>
</svg>
