<svg width="153" height="60" viewBox="0 0 153 60" fill="none" xmlns="http://www.w3.org/2000/svg">
<path d="M58.1994 8.80664C57.9763 9.27423 57.785 9.67805 57.5937 10.0819C52.7159 20.4856 47.8275 30.8894 42.9498 41.3038C42.4928 42.2709 41.7489 42.781 40.6969 42.8022C40.3993 42.8129 40.0805 42.696 39.7936 42.5791C37.2644 41.5801 34.7458 40.5706 32.2272 39.5397C30.9413 39.0084 29.5173 39.5504 28.8691 40.6875C28.0083 42.1965 27.105 43.6949 26.2336 45.1933C26.1486 45.3421 26.0529 45.3846 25.8935 45.3846C25.0115 45.3739 24.1295 45.3846 23.2262 45.3846C23.2262 44.8745 23.2262 44.3644 23.2262 43.8437C24.1932 43.8437 25.1603 43.8437 26.1486 43.8437C26.1486 43.1423 26.1486 42.4622 26.1486 41.7608C25.1815 41.7608 24.2145 41.7608 23.2155 41.7608C23.2155 41.5483 23.1943 41.357 23.2262 41.1763C23.2368 41.1019 23.3537 41.0275 23.4387 40.9744C25.1284 40.0286 26.8181 39.0934 28.5078 38.1476C28.5715 38.1158 28.6353 38.0733 28.7203 38.0201C28.6247 37.9776 28.5503 37.9351 28.4759 37.9032C27.36 37.4463 26.2442 36.9893 25.1177 36.5536C25.0221 36.5111 24.8627 36.5323 24.7671 36.5855C23.9594 37.0424 23.1624 37.51 22.3335 37.9988C21.5684 36.7874 20.8032 35.5653 20.0381 34.3432C32.7479 25.8416 45.4365 17.3507 58.1994 8.80664Z" fill="#BC2030"/>
<path d="M58.1888 8.44536C57.1792 8.97671 56.1803 9.50805 55.1707 10.0288C42.3121 16.8088 29.4535 23.5781 16.6055 30.3581C15.7554 30.8045 14.8733 31.0807 13.9169 30.9851C13.4281 30.9426 12.9286 30.8151 12.4716 30.6344C8.63531 29.0723 4.799 27.4782 0.962677 25.9054C0.441957 25.6929 0.186894 25.3209 0.176268 24.7683C0.165641 24.2795 0.505703 23.8332 1.02642 23.6844C2.08912 23.3868 3.15181 23.1106 4.21451 22.8236C9.44296 21.4209 14.6714 20.0181 19.8999 18.626C25.4471 17.1382 30.9944 15.661 36.5417 14.1733C42.5671 12.558 48.582 10.9427 54.5968 9.32741C55.7552 9.01922 56.9135 8.71104 58.0719 8.39223C58.1037 8.3816 58.1356 8.39222 58.1675 8.38159C58.1781 8.4241 58.1781 8.43474 58.1888 8.44536Z" fill="#BC2030"/>
<path d="M0.0702045 26.9148C1.41983 27.478 2.71631 28.0094 4.02342 28.5513C4.18283 35.5332 6.58452 41.5906 11.5686 46.5321C16.542 51.463 22.6206 53.8116 29.6131 53.8647C29.5706 55.6394 29.5175 57.4247 29.4643 59.2632C20.899 58.9125 13.5877 55.7563 7.79599 49.412C2.01493 43.0677 -0.461143 35.512 0.0702045 26.9148Z" fill="#2A2D6B"/>
<path d="M50.4844 9.39106C49.783 9.57172 49.1348 9.74175 48.4865 9.92241C48.3059 9.97554 48.1996 9.93305 48.0615 9.80553C45.6598 7.56324 42.9286 5.83105 39.8893 4.59833C38.3272 3.96071 36.7013 3.49311 35.0435 3.1743C34.2889 3.03615 33.5132 2.9724 32.748 2.86613C31.6109 2.70672 30.4632 2.69609 29.3262 2.72797C26.4781 2.80236 23.7151 3.31246 21.0371 4.30077C18.3166 5.2997 15.8406 6.70244 13.5983 8.5409C10.1445 11.357 7.57281 14.8321 5.89375 18.9659C5.58557 19.7205 5.35177 20.5068 5.0861 21.272C5.05421 21.3464 4.97984 21.442 4.91608 21.4633C3.56646 21.8246 2.2062 22.1859 0.845956 22.5472C0.845956 22.5472 0.835334 22.5366 0.824707 22.5366C2.79069 13.4718 10.3358 3.69502 22.4824 0.815123C28.7736 -0.683276 34.9372 -0.109426 40.8776 2.48355C44.5546 4.07759 47.732 6.39426 50.4844 9.39106Z" fill="#2A2D6B"/>
<path d="M13.0884 33.4929C14.8737 34.0668 16.6697 34.63 18.455 35.2145C18.5506 35.2464 20.4422 38.1475 21.303 39.5078C21.3455 39.5715 21.3774 39.6565 21.3774 39.7309C21.3774 43.2484 21.3774 46.766 21.3774 50.2835C21.3774 50.3047 21.3668 50.326 21.3562 50.4004C20.9842 50.3791 20.6016 50.3791 20.2403 50.3154C19.7834 50.2304 19.337 49.5609 19.337 49.0295C19.337 48.5194 19.337 48.02 19.337 47.4673C18.37 47.4673 17.4242 47.4673 16.4678 47.4673C16.4571 47.4567 16.4359 47.4461 16.4253 47.4249C16.4253 46.7554 16.4253 46.0859 16.4253 45.4057C17.3817 45.4057 18.3381 45.4057 19.3158 45.4057C19.3158 44.885 19.3158 44.3749 19.3158 43.8329C18.37 43.8329 17.4136 43.8329 16.4678 43.8329C16.4571 43.8223 16.4359 43.8117 16.4253 43.7904C16.4253 43.1209 16.4253 42.4514 16.4253 41.7607C17.1479 41.7607 17.8705 41.7607 18.6356 41.7607C18.3912 41.3994 18.1681 41.0699 17.9555 40.7511C16.3615 38.4026 14.7568 36.054 13.1628 33.6948C13.1309 33.6417 13.099 33.5886 13.0671 33.5248C13.0671 33.5142 13.0778 33.5035 13.0884 33.4929Z" fill="#BC2030"/>
<path d="M32.0574 56.426C37.7747 55.7565 42.8437 53.6099 47.2008 49.8267C51.2284 46.3304 54.0126 42.0052 55.5004 36.8831C55.8511 35.6822 56.0636 34.4282 56.2974 33.1955C56.4037 32.6429 56.425 32.0691 56.4568 31.4952C56.4994 30.5813 56.5631 29.6568 56.5525 28.7428C56.4993 26.1817 56.1062 23.6738 55.3198 21.2402C55.086 20.5176 54.7884 19.8056 54.5334 19.0829C54.5015 18.9979 54.4802 18.8916 54.5121 18.8173C54.7884 18.2009 55.0753 17.5845 55.3623 16.9682C55.3729 16.9363 55.4048 16.9151 55.426 16.8938C59.7512 26.458 58.4972 38.1371 51.3028 46.628C47.7109 50.8681 43.2475 53.7905 37.9234 55.3846C36 55.9691 34.0446 56.3304 32.0574 56.426Z" fill="#2A2D6B"/>
<path d="M23.2368 47.4888C23.7894 47.4888 24.3208 47.4888 24.8946 47.4888C24.3314 48.3389 23.9488 49.2635 23.2368 50.0711C23.2368 49.1678 23.2368 48.3389 23.2368 47.4888Z" fill="#BC2030"/>
<path d="M13.0573 33.4946C13.0462 33.4835 13.0352 33.4725 13.0242 33.4504C13.0462 33.4504 13.0683 33.4615 13.0793 33.4615C13.0793 33.4725 13.0683 33.4835 13.0573 33.4946Z" fill="#C9203C"/>
<path d="M16.4146 47.4355C16.4256 47.4466 16.4476 47.4576 16.4587 47.4797C16.4476 47.4576 16.4366 47.4466 16.4146 47.4355Z" fill="#D03756"/>
<path d="M142.566 12.2632C143.747 12.4788 144.927 12.6534 146.087 12.9307C147.573 13.2798 149.038 13.7008 150.492 14.1219C150.703 14.1835 151.019 14.4504 151.019 14.625C151.051 16.8534 151.04 19.0817 151.04 21.5565C150.45 21.3203 149.976 21.2073 149.586 20.9609C145.992 18.6401 142.092 17.4489 137.77 18.0856C136.801 18.2294 135.768 18.5785 134.956 19.1228C133.27 20.2523 133.502 22.4293 135.42 23.1276C137.159 23.754 139.025 24.0313 140.817 24.5344C143.009 25.1506 145.264 25.6538 147.351 26.5163C153.833 29.1965 153.117 36.8057 149.934 39.9993C147.731 42.2174 145.022 43.4188 141.965 43.8912C136.506 44.7435 131.193 44.1171 126.039 42.1558C125.523 41.9607 125.291 41.745 125.302 41.1597C125.344 38.9622 125.323 36.7544 125.323 34.2898C125.902 34.526 126.377 34.6287 126.746 34.8854C131.025 37.8121 135.673 39.2394 140.922 38.2742C141.491 38.1715 142.06 37.925 142.556 37.6272C144.379 36.549 144.432 34.3001 142.513 33.3862C141.069 32.6982 139.425 32.349 137.834 32.0102C135.315 31.4659 132.827 30.9114 130.456 29.864C124.342 27.1736 123.826 18.8763 129.064 15.2309C131.288 13.6906 133.744 12.828 136.421 12.448C136.601 12.4275 136.759 12.3351 136.927 12.2735C138.824 12.2632 140.701 12.2632 142.566 12.2632Z" fill="#2A2D6B"/>
<path d="M105.347 34.4536C105.347 37.8205 105.347 41.0127 105.347 44.2632C102.313 44.2632 99.3354 44.2632 96.3013 44.2632C96.3013 34.2984 96.3013 24.3336 96.3013 14.3106C96.5513 14.2912 96.7785 14.2718 97.0058 14.2718C101.949 14.2718 106.904 14.2524 111.847 14.2718C114.086 14.2815 116.29 14.5047 118.404 15.1742C123.699 16.8431 125.745 20.4913 125.222 24.9837C124.506 31.1159 118.381 34.2111 113.074 34.4342C110.54 34.541 108.006 34.4536 105.347 34.4536ZM105.347 28.9619C107.551 28.8454 109.699 28.8551 111.79 28.6029C114.427 28.273 115.779 26.7011 115.904 24.2172C115.995 22.199 114.699 20.6271 112.154 20.239C109.938 19.8994 107.642 19.9285 105.347 19.783C105.347 22.917 105.347 25.8279 105.347 28.9619Z" fill="#2A2D6B"/>
<path d="M77.4584 29.8848C77.4584 31.2693 77.4584 32.5571 77.4584 33.8932C74.382 33.8932 71.3776 33.8932 68.3013 33.8932C68.3013 27.3771 68.3013 20.861 68.3013 14.2965C68.5276 14.2869 68.7643 14.2675 69.0112 14.2675C73.4354 14.2675 77.8596 14.2578 82.2941 14.2675C84.7223 14.2772 87.0888 14.6354 89.27 15.7004C92.9123 17.4626 94.4556 20.7061 93.365 24.2304C92.7168 26.3121 91.1632 27.5998 89.1363 28.4518C88.4572 28.7326 87.7473 28.9456 86.9653 29.2167C87.274 29.3426 87.5312 29.4781 87.809 29.5653C90.7928 30.5238 92.2641 32.5377 92.5419 35.4423C92.7065 37.127 92.8917 38.8117 93.2107 40.4673C93.4473 41.726 93.9206 42.946 94.3013 44.2531C94.1161 44.2531 93.7765 44.2531 93.437 44.2531C90.7002 44.2531 87.9633 44.2337 85.2162 44.2627C84.6812 44.2724 84.3622 44.1272 84.2799 43.6334C84.033 42.2488 83.714 40.874 83.6008 39.4894C83.4568 37.7563 83.5391 36.0039 83.4259 34.2611C83.2201 31.095 81.79 29.8751 78.4049 29.8848C78.1271 29.8848 77.8494 29.8848 77.4584 29.8848ZM77.4892 27.3384C80.9772 27.5998 83.0144 27.0092 83.8684 25.2664C84.9487 23.0782 85.0516 20.7739 83.5494 18.7407C82.0781 16.7461 79.7219 17.0753 77.4892 17.1044C77.4892 20.5415 77.4892 23.9109 77.4892 27.3384Z" fill="#2A2D6B"/>
<path d="M78.3013 36.2632C78.3013 37.2796 78.3013 38.2304 78.3013 39.2632C74.9792 39.2632 71.6684 39.2632 68.3013 39.2632C68.3013 38.2796 68.3013 37.296 68.3013 36.2632C71.6459 36.2632 74.9567 36.2632 78.3013 36.2632Z" fill="#293E83"/>
</svg>
