<svg width="24" height="24" viewBox="0 0 24 24" fill="none" xmlns="http://www.w3.org/2000/svg">
<g clip-path="url(#clip0_99_248)">
<path d="M12 24C18.6274 24 24 18.6274 24 12C24 5.37258 18.6274 0 12 0C5.37258 0 0 5.37258 0 12C0 18.6274 5.37258 24 12 24Z" fill="#00BA00"/>
<path fill-rule="evenodd" clip-rule="evenodd" d="M8.25298 17.8525L3.8642 13.1552C3.26335 12.5121 3.29783 11.4947 3.94092 10.8938C4.58401 10.293 5.60146 10.3276 6.20231 10.9706L9.58763 14.5938L14.9461 9.58715C14.9943 9.54208 15.0447 9.50079 15.0968 9.46281L17.6167 7.10845C18.2598 6.5076 19.2773 6.54218 19.8781 7.18526C20.4789 7.82826 20.4443 8.8458 19.8013 9.44665L12.1049 16.6377L12.0967 16.6289L9.43437 19.1164L8.25298 17.8525Z" fill="white"/>
</g>
<defs>
<clipPath id="clip0_99_248">
<rect width="24" height="24" fill="white"/>
</clipPath>
</defs>
</svg>
